<svg xmlns="http://www.w3.org/2000/svg" viewBox="0 0 25.5 25.86"><defs><style>.cls-1{fill:#ff6f1f;}</style></defs><g id="Layer_2" data-name="Layer 2"><g id="Layer_1-2" data-name="Layer 1"><path class="cls-1" d="M15.25,12.8a6.4,6.4,0,1,0-6.4-6.4A6.4,6.4,0,0,0,15.25,12.8ZM14.49,2.64V2.46a.75.75,0,0,1,.76-.75.74.74,0,0,1,.75.75v.18a2,2,0,0,1,1.58,1.95.76.76,0,1,1-1.51,0,.49.49,0,0,0-.49-.48H14.9a.49.49,0,0,0-.48.48.46.46,0,0,0,.2.39l.63.47,1.53,1.13a2.05,2.05,0,0,1,.81,1.6h0A2,2,0,0,1,17,9.6a1.94,1.94,0,0,1-1,.55v.18a.75.75,0,0,1-.75.76.76.76,0,0,1-.76-.76v-.17a2,2,0,0,1-1-.54,2,2,0,0,1-.59-1.41.76.76,0,0,1,.75-.76h0a.77.77,0,0,1,.76.75.48.48,0,0,0,.48.49h.68a.48.48,0,0,0,.48-.49h0a.49.49,0,0,0-.19-.39l-.63-.47L13.71,6.2a2,2,0,0,1-.81-1.61A2,2,0,0,1,14.49,2.64Z"/><path class="cls-1" d="M4.88,16.44a.69.69,0,0,0-1-.26L.35,18.23a.73.73,0,0,0-.26,1l3.65,6.31a.7.7,0,0,0,1,.26l3.57-2.06a.71.71,0,0,0,.25-1Z"/><path class="cls-1" d="M25.3,15.18a1,1,0,0,0-1.48-.24l-4.44,3.19a1.91,1.91,0,0,1-.32.24,2.77,2.77,0,0,1-1.47.42H14a.76.76,0,1,1,0-1.52h3.88a1,1,0,0,0,1-1.05,1,1,0,0,0-1-1h-3a5.27,5.27,0,0,0-.66-.58,4.84,4.84,0,0,0-2.88-.94A5.37,5.37,0,0,0,6.7,16.56l3.1,5.37h5.82a6.5,6.5,0,0,0,3.25-.86q.51-.3,1.11-.72c1.67-1.2,5.08-3.69,5.08-3.69a1,1,0,0,0,.24-1.48Z"/></g></g></svg>